<svg version="1.1" id="logo" xmlns="http://www.w3.org/2000/svg" xmlns:xlink="http://www.w3.org/1999/xlink" x="0px" y="0px"
	 viewBox="86 269 783 255" style="enable-background:new 86 269 783 255;" xml:space="preserve">
<style type="text/css">
	.st0{fill:#FFFFFF;}
</style>
<g>
	<path class="st0" d="M455.2,315.8c1.9,3.5,2.9,8.2,2.9,10.4v71.5c-0.1,2.3-1.1,6.8-2.9,10c-1.9,3.5-6.8,3.7-6.8,3.7v2.5h36.4v-2.4
		c0,0-3,0.3-6.2-2.9c-2.6-2.7-3.3-7.9-3.4-11.3v-67.6c0,0-0.6-10.4,3.4-14.5c3.1-3.2,6.2-2.9,6.2-2.9v-2.4h-36.4v2.5
		C448.4,312.1,453.3,312.3,455.2,315.8z"/>
	<path class="st0" d="M572.6,402c13.8-14.4,22.2-42.6,2.5-70.8c-17-24.4-46-21.5-49.4-21.5h-34v2.6c0,0,8.5-0.7,9.5,12.9v68.1
		c0,0,0.7,14.4-4.5,16.7c-4.7,2-5,1.8-5,1.7v2.4h44C535.6,414,558.7,416.3,572.6,402z M518.2,395v-64.9c0,0-1.9-12.2,10.8-12
		s38.4,7.5,39.4,46.6c1.1,39.1-26.8,40.9-26.8,40.9h-14.3C518.5,405.6,518.2,395,518.2,395z"/>
	<path class="st0" d="M399.7,442.8c45.6-10.9,50-65.4,50-65.4s-5.8,18.5-15.9,25.4s-45.2,7.7-45.2-8.3v-34.4h13c0,0,9.8,0.3,14,6
		c4.1,5.7,7.7,18.1,7.7,18.1h1.2l-6.9-42.6l-2.3,1.2c0,0,0.5,5.5-3.3,7.1c-3.7,1.6-3.9,1.7-7.1,1.8s-16.3,0-16.3,0v-20
		c0,0-0.9-11.5,7.6-12c8.6-0.5,23.5-1.1,34.1,10.5s8.1,12.1,8.1,12.1l2.2,0.6l-7.1-34.3c0,0-1.8,2-4.1,2.3c-2.4,0.3-67.7,0-67.7,0
		l0.4,2.6c0,0,5.8,0.2,8.2,6.5c1.4,3.6,1.1,8.8,1.1,8.8v73.6c0,0,0.4,4.4-2.9,7c-3.3,2.7-6.8,3.4-6.8,3.4v2.4c0,0,74.7-9.1,69.7,4.4
		c-21.3,35.6-100.1,21.5-118.2,17.3c-18.1-4.3-19.7-5.6-23.6-13c-4-7.4-6.1-13.8-6.1-13.8l-46.8-102.2L200.9,388l-0.4-0.1
		c-15.1-1.9-29.2-6.5-42.1-13.6c-16.4-9-28.3-24.1-32.8-41.3c-0.2-0.8-0.4-1.7-0.6-2.5c0-0.7,0.1-1,0.2-1.2c0.3-0.6,0.7-1.3,1.1-1.9
		c0.6-0.8,1.2-1.7,1.3-2.6c0.1-0.3,0.1-0.8,0.2-1.2c0.1-1.1,0.3-2.6,0.6-3c0.4-0.6,0.6-1.2,0.4-1.6c-0.2-0.3-0.5-0.6-0.9-0.6
		s-2.1,0.4-2.8,1.1c0,0,0,0-0.1,0.1c1.3-5.6,4.7-7.9,6.6-8.1c0.3,0,0.6,0.1,1,0.1c0.8,0.1,1.8,0.2,2.7,0c0.2-0.1,0.5-0.1,0.7-0.1
		c0.4,0,0.9,0.2,1.3,1.3c0,0.1,0,0.1,0.1,0.2c-0.2,0-0.7,0-1.8-0.4c-1-0.4-2-0.1-2.4,0.5c-0.3,0.5-0.4,1.2-0.1,1.9
		c0.5,1.4,2,2.4,3.7,2.4c0.4,0,0.7-0.1,1.1-0.2c1.2-0.4,2.1-1.2,2.7-2.2c0.4-0.9,0.5-1.9,0.1-2.9c-0.7-2-3.4-4.1-6.6-4.1
		c-0.7,0-1.4,0.1-2.1,0.3c-3.7,1.2-6.7,4.5-8.4,9c-0.1-3.7,0.1-7.5,0.6-11.2c1.3-9.6,6.8-22.6,18.3-27.3c2.1-0.9,4.3-1.3,6.4-1.3
		c4.2,0,7.5,1.9,9.4,5.2c1.6,2.9,1.6,7.7-0.8,9.6c-1.7,1.4-4.2,1.4-5.1,0.1c-0.3-0.4-0.4-0.8-0.4-1.3c0.6,0.5,1.3,0.9,1.6,1l0.3,0.1
		l0.2-0.2c1.2-1.2,1-2.3,0.8-2.8c-0.4-1-1.6-1.6-2.9-1.6c-1.5,0-2.7,0.8-3.2,2.2c-0.5,1.3-0.5,2.5,0.1,3.6c0.7,1.3,2,2.3,3.8,2.7
		c3.9,1,7.2-0.9,8.7-4.8c1.4-3.8,1.1-9.4-2.4-12.5c-3.2-2.9-6.8-4.3-10.6-4.3c-11.5,0-22.1,13.2-25,22.3c-3.1,9.7-3.4,21.7-0.9,33.7
		c0.3,2.5,0.9,4.9,1.8,7.1c1,3.2,2.1,6.2,3.4,9c4.3,9.4,14,23.7,35.6,34.2c-3-0.7-6-1.4-9-2.2c-39.6-10.1-64.8-42-64.8-42l27,62.3
		c0,0,0.5-3.2-3.2-13.5c-4.3-12-5.5-19.6,16.8-9.5c23.1,10.5,46.8,12.1,67.6,15.8l1.4,0.2c0,0-14.4,33.4-27.4,64
		c-12,2.2-25.9,10.1-31.9,22.1c-4.4,8.8-5.5,18.4-2.9,25.6c2,5.4,5.8,9.4,11.5,11.8c8.6,3.7,15.8,3.4,22.2-0.8
		c6.4-4.2,9.4-14.2,6.9-20.3c-1.8-4.4-6.6-8.1-11.7-8.6c-0.3,0-0.7,0-1.1,0c-0.8-0.1-1.8-0.2-3-0.2c3.7-7.3,8.2-16,13.1-25.6
		c0.6-0.1,1.1-0.1,1.6-0.2c17.4-1.6,27.5-0.4,27.5-15.5l-0.7-11.3c0,13.7-10.6,20.7-26.2,22.5c10-19.6,21.5-41.9,31.7-61.8
		c18.3,2.4,43.6,4.5,53.1,5.2l9.1,21.3c0,0,3.5,7.2-3.7,12c-9,6-36.1,22.3-45.7,30.3s-18.1,18.7-18.1,18.7s20-19.7,46.6-30.9
		c26.6-11.2,30.7-15.6,69.2-7.9C357.8,449.7,377.9,448,399.7,442.8z M159.3,485.5c-1.7,0.2-3.6,0.6-5.9,1.3c-3.8,1.2-3.1,6.3-6.5,8
		c3.6,2.9,4.5-1.3,7.6-2.2c3.1,4.8-6.4,8.8-8.1,6.4c0.8,3,4.1,3.5,6.2,1.4c-2.2,2.4-6.4,7-3.5,10.3c-0.6-5.7,8.2-6.8,10.3-11.3
		c2.4-5.2-0.9-11.8,7.2-12.9c2.7,0.4,5.7,2.2,8.9,6.5c3.4,4.6-0.6,16.4-6.1,20.1c-5.8,3.9-12.3,4.1-20.3,0.6
		c-5.1-2.2-8.6-5.8-10.4-10.6c-2.5-6.7-1.4-15.7,2.8-24c5.2-10.3,17.3-16,28.2-18.4C165.9,469.6,162.3,478.2,159.3,485.5z
		 M210.6,390.1l26-50.7l23.8,55.4C244.2,394.2,227.6,392.7,210.6,390.1z"/>
	<path class="st0" d="M799.4,378.5c-0.1,0-0.2,0-0.3,0.1c15.4-7,24.1-16.6,28.8-23.5c1.7-2.6,3.4-5.4,4.8-8.3
		c1.2-2.1,2.2-4.4,2.9-6.7c4.4-11.5,6-23.4,4.6-33.4c-1.6-11-11.3-26.3-23.4-26.3c-3,0-5.9,0.9-8.8,2.7c-4.1,2.6-5.4,8.6-4.2,12.8
		c1.1,3.7,3.8,5.7,7.6,5.3c1.8-0.2,3.3-0.9,4.2-2.1c0.7-1,1-2.2,0.6-3.6c-0.5-2-2.1-2.7-3.4-2.7c-1.2,0-2.2,0.5-2.6,1.3
		c-0.2,0.5-0.5,1.4,0.4,2.7l0.2,0.3l0.3-0.1c0.4-0.1,1.2-0.3,1.8-0.7c-0.1,0.4-0.3,0.8-0.5,1.1c-0.4,0.5-1.1,0.8-1.9,0.8
		c-1.1,0-2.4-0.6-3.2-1.6c-2.1-2.3-1.3-7.1,0.8-9.6c2-2.5,4.8-3.8,8-3.8c2.7,0,5.6,0.9,8.2,2.5c10.5,6.5,13.9,20.2,13.6,29.9
		c-0.1,3.7-0.5,7.5-1.2,11.2c-0.9-4.7-3.3-8.5-6.8-10.2c-1-0.5-2.1-0.8-3.2-0.8c-2.8,0-5.1,1.6-6,3.1c-0.5,0.9-0.6,1.9-0.3,2.8
		c0.3,1.1,1.2,2.1,2.3,2.6c0.5,0.3,1.1,0.4,1.7,0.4c1.4,0,2.7-0.7,3.4-1.8c0.5-1,0.3-1.7,0.1-2c-0.4-0.7-1.3-1-2.2-0.8
		c-0.6,0.1-1.1,0.2-1.4,0.2c-0.2,0-0.4,0-0.4,0s0-0.1,0.1-0.2c0.6-1.1,1.2-1.3,2.1-0.8c1.4,0.7,2.8,0.4,3.7,0.5
		c1.8,0.5,4.8,3.4,5.1,9.1l0,0c0,0,0,0,0-0.1c-0.6-0.8-2.2-1.5-2.6-1.6h-0.2c-0.4,0-0.7,0.2-0.9,0.5c-0.3,0.4-0.2,1,0.1,1.6
		c0.2,0.6,0.1,2,0.1,3.1c0,0.4,0,0.9,0,1.2c0,0.9,0.5,1.8,0.9,2.7c0.3,0.7,0.7,1.4,0.8,2c0.1,0.2,0.1,0.6,0,1.2
		c-0.3,0.8-0.6,1.6-1,2.4c-7.2,16.3-21.5,29.2-39.1,35.5c-5.6,2-11.4,3.5-17.4,4.6c4.6-14.5,3.6-32.7-9.1-50.9
		c-17-24.4-46-21.5-49.4-21.5h-34v2.6c0,0,8.5-0.7,9.5,12.9v68.1c0,0,0,0.6,0,1.5c5.7-0.2,11.3-0.5,17.1-1.1v-63.5
		c0,0-1.9-12.2,10.8-12s38.4,7.5,39.4,46.6c0.3,10.5-1.5,18.4-4.4,24.2c-22.3,4.6-43.5,7.7-64.5,8.3c-6.7,0.2-14.4-0.2-22.5-0.7
		l-40.6-88.6c0,0-22.9,52.3-44.9,103.1c-1,0.2-2,0.5-3,0.7c-14.9,3.6-30.3,7.4-42.7,16.9c-6.8,5.3-13,11.7-19.1,17.9
		c-1.9,1.9-3.7,3.8-5.6,5.8c-6.9-1.4-11.8-3.7-14-5.2c-5.3-3.4-8.9-8.2-9.9-13.3c-0.8-3-0.2-6.1,1.5-8.1c1.3-1.5,3-2.3,4.8-2.1
		c0.7,0,1.4,0.2,2,0.5c0.9,0.5,2.4,2.1,2.4,4.1c0,2.3-1.7,4.5-5.1,6.6c-0.4,0.3-0.6,0.9-0.5,1.4c0.3,0.9,1.5,1,2.9,0.1
		c2.7-1.6,4.5-4.6,4.5-7.6c0-2.6-1.2-4.8-3.4-6.1c-0.7-0.4-1.6-0.6-2.5-0.7c-2.8-0.2-5.7,1.3-7.3,3.7c-1.3,2.1-3,6.6,1.1,14.4
		c5.4,8.7,14.2,12.2,21.9,13.7c-11.6,11.4-24.3,21.7-42.2,23.5c-2.1,0.2-4.3,0.3-6.5,0.1c-12.9-0.8-25.1-7.7-36.8-14.4
		c-11.3-6.4-22.1-12.2-33-13.2c-15.6-1.4-31,17.2-31,17.2l7.8-6.7c7.4-6.2,14.9-9,23-8.5c10.7,0.7,21.2,6.9,32.3,13.5
		c12.1,7.2,24.5,14.6,38.5,15.5c2.4,0.2,4.8,0.1,7.1-0.1c19.6-2,33-13.8,45.4-26.3c0.2,0,0.3,0,0.5,0.1c1.4,0.2,2.7,0.3,4,0.4l0,0
		c20.3,1.3,38.7-7.4,54.8-26c-4.1,9.4-8,18.6-11.7,27c-12,2.3-25.8,10.1-31.8,22.1c-4.4,8.8-5.5,18.4-2.9,25.6
		c2,5.4,5.8,9.4,11.5,11.8c8.6,3.7,15.8,3.4,22.2-0.8c6.4-4.2,9.4-14.2,6.9-20.3c-1.8-4.4-6.6-8.1-11.7-8.6c-0.3,0-0.7,0-1.1,0
		c-0.9-0.2-2.1-0.3-3.6-0.2c3.7-7.2,8.2-16,13.1-25.6c0.8-0.1,1.6-0.2,2.3-0.3c17.4-1.6,27.5-0.4,27.5-15.5l-0.7-11.3
		c0,13.9-10.9,20.9-26.9,22.6c5.5-10.7,11.4-22.2,17.3-33.7c1.1-1.6,9.9-13.9,27.5-18.2c17-4.1,24.5-4.3,40.4-4.1l8.8,20.5
		c0,0,3.5,6.4-3.7,12c-8.6,6.7-36.1,22.3-45.7,30.3c-9.6,8-18.1,18.7-18.1,18.7s20-19.7,46.6-30.9c26.6-11.2,37.9-13.2,72.7-7.5
		c18.9,3.1,89.5,25.3,121.6-42.2c0.4-0.8,28.6-63.8,28.6-63.8S839,368.4,799.4,378.5z M519.8,453.2c-0.8-0.1-1.7-0.1-2.5-0.2
		c1.1-1.1,2.1-2.2,3.2-3.2c6-6.2,12.3-12.6,19.1-17.8c11.9-9.2,26.9-13,41.4-16.5c-0.7,1.5-1.3,3-2,4.6
		C568,435.7,548.5,455.1,519.8,453.2z M550.8,485.5c-1.6,0.2-3.5,0.6-5.6,1.2c-3.8,1.2-3.1,6.3-6.5,8c3.6,2.9,4.5-1.3,7.6-2.2
		c0.5,0.7,0.6,1.4,0.6,2.1c-0.3,0.8-0.6,1.5-0.9,2.2c-2,2.4-6.6,3.7-7.7,2c0.8,3,4.1,3.5,6.2,1.4c-2.2,2.4-6.4,7-3.5,10.3
		c-0.6-5.7,8.2-6.8,10.3-11.3c2.4-5.2-0.9-11.8,7.2-12.9c2.7,0.4,5.7,2.2,8.9,6.5c3.4,4.6-0.6,16.4-6.1,20.1
		c-5.8,3.9-12.3,4.1-20.3,0.6c-5.1-2.2-8.6-5.8-10.4-10.6c-2.5-6.7-1.4-15.7,2.8-24c5.2-10.3,17.2-16,28.1-18.3
		C557.4,470.1,553.8,478.5,550.8,485.5z M626.6,396.8c-18.3,3-23.1,5.8-33.9,10.8l34.9-68.2l24.1,56.2
		C643,395.4,634.3,395.5,626.6,396.8z M838.1,385.8c-24.3,77.6-92,62-129.9,53.2c-18.1-4.2-23.4-7.7-27.4-15.2
		c-4-7.4-6.1-13.8-6.1-13.8l-4.8-10.5c15.3,0.1,27.7-0.1,27.7-0.1c8.3-0.6,37.4-4.1,56-7.3c-7.9,12.6-20.6,13.4-20.6,13.4h-14.4
		c-4.3,0-6.6-2.6-7.8-5.2c-5.8,0.7-10.5,1.2-13.1,1.4c0,0-2.1,0-5.7,0.1c-0.5,3.6-1.7,7.1-4,8.1c-4.6,2-4.9,1.8-5,1.7v2.4h44
		c0,0,23.1,2.3,36.9-12c3.4-3.5,6.5-7.9,8.9-12.9c16.2-2.5,33.6-5.3,50.6-13.1C845.6,365.8,841.9,373.7,838.1,385.8z"/>
	<path class="st0" d="M300.7,375.4c-0.8,1.9,0.8,5,3.7,5.2c5.9,0.6,10.7-4,9.9-8.6c-0.8-4.8-6.7-8.5-11.2-9.4
		c-10.1-2.1-17.7,6.9-17.8,16c0,2,0.2,4,0.6,5.9v-0.1c0,0,12.7,33.8,12.1,29.3c-0.3-2.5-0.1-3.8,0.5-4.4c1.1,0.8,2.4,1.9,3.7,3.2
		c0.9,0.9,1.5,2.2,1.8,3.7c0.3,1.7,0.1,3.5-0.1,4.6c-0.4,2.2-2.9,5.2-5.5,4.9c-1.9-0.3-2.5-1.4-2.7-2.3c0-0.3-0.1-0.5,0-0.7
		c0.3,0.7,1.1,1.3,2,1.5c1.4,0.2,2.6-0.9,2.8-2.1c0.1-0.3,0.1-0.6,0-1c-0.2-1-0.9-2-2.4-2.2c-1.9-0.3-4.1,0.7-4.6,3.5
		c-0.1,0.5-0.1,1,0,1.5c0.4,2,2.3,3.7,4.7,4c1.9,0.3,3.6-0.2,5-1.4c1.1-0.9,1.9-2.1,2.4-3.3c-0.1,0.9,0.6,1.9,1.6,2.2
		c0.8,0.2,1.7-0.1,2.4-1c1.1-1.5,1-3.3,0.8-4.6c-0.1-0.8-0.4-1.6-0.7-2.3c-0.8-1.9-2.4-3.7-4.2-5.1c-0.5-0.4-1-0.7-1.3-0.9
		c0,0-0.1,0-0.1-0.1c-0.5-0.6-1.1-1.1-1.7-1.6c3.8,1.7,12.9,6.2,25,5.7c14.4-0.5,37.7-12.5,38.5-34s-9.8-28.2-21.8-32.7
		s-22.6-7.4-33.5-11.4s-12-22.3,12.5-20.7c24.4,1.6,30.7,24,30.7,24l2.1-0.6l-6.2-32.8c0,0-1.6,2.5-3.7,3.6s-9.3-1.1-17.3-2.9
		c-8-1.9-27.1-3.2-36.7,12.5s-1.9,31.1,16.2,36.9s33.5,9.6,39.9,17.8c6.4,8.2,3.5,31.7-25.5,32.8c-6.5,0.2-20.9-1.2-29.7-15.5
		c-2.1-3.5-3-5.2-4.2-9.1c-2.2-7.3,1.5-16.1,9.1-18.5c5.1-1.6,12.7,1.4,13,7.1C311.2,381.7,300.1,381,300.7,375.4z M307.4,424.3
		c-0.3-0.1-0.6-0.4-0.6-0.7c0-0.1,0-0.2,0-0.2s0.1-0.1,0.2-0.1c0.2,0,0.4,0.2,0.6,0.6c0.1,0.2,0.3,0.3,0.5,0.3
		C307.9,424.3,307.7,424.3,307.4,424.3z M309.1,420.1c0.1,0.3,0.1,0.7,0.1,1c0,1-0.2,1.6-0.4,2.1l-0.1-0.2c-0.5-0.9-1.2-1.1-1.6-1.1
		c-0.5,0-1,0.3-1.3,0.6c0.3-1,0.5-1.9,0.5-2.7c0.1-2-0.1-3.7-0.6-5.2C307.7,416.3,308.7,418.1,309.1,420.1z"/>
</g>
</svg>